<svg width="11" height="11" viewBox="0 0 11 11" fill="none" xmlns="http://www.w3.org/2000/svg">
<path d="M9.86719 8.40625C9.84375 8.40625 9.84375 8.40625 9.82031 8.42969C9.5625 8.47656 9.30469 8.5 9.04688 8.5C6.82031 8.5 4.96875 6.69531 4.96875 4.375C4.96875 2.89844 5.74219 1.53906 7.03125 0.8125C7.24219 0.695312 7.19531 0.390625 6.96094 0.34375C6.70312 0.296875 6.28125 0.25 6 0.25C3.09375 0.25 0.75 2.61719 0.75 5.5C0.75 8.40625 3.09375 10.75 5.97656 10.75C7.59375 10.75 9.07031 10.0234 10.0547 8.82812C10.1953 8.64062 10.0547 8.40625 9.86719 8.40625ZM5.97656 9.625C3.70312 9.625 1.875 7.77344 1.875 5.5C1.875 3.71875 3 2.19531 4.59375 1.63281C4.10156 2.42969 3.82031 3.39062 3.82031 4.375C3.82031 6.71875 5.34375 8.6875 7.45312 9.36719C6.98438 9.55469 6.49219 9.625 5.97656 9.625Z" fill="#828282"/>
</svg>
