<svg width="37" height="37" viewBox="0 0 37 37" fill="none" xmlns="http://www.w3.org/2000/svg">
<path fill-rule="evenodd" clip-rule="evenodd" d="M24.0499 33.2375C24.1567 32.8372 24.1115 32.3998 23.8977 32.0161C23.6511 31.653 23.3838 31.195 23.0961 30.6874C22.0148 28.8099 20.5389 26.2516 18.9767 26.8499L16.2674 27.8939C15.6261 28.1415 14.9354 28.1993 14.3187 28.0342C13.7432 27.8774 13.2375 27.5308 12.9004 26.9614C12.8963 26.9531 12.8881 26.9449 12.8839 26.9366L7.54355 17.6483C7.20644 17.0623 7.15299 16.4392 7.30921 15.8533C7.47366 15.2385 7.87244 14.6691 8.40689 14.2317L10.6639 12.3955C11.963 11.3391 10.4913 8.77255 9.41002 6.89508C9.1099 6.37103 8.83857 5.89651 8.65767 5.52101C8.43567 5.14552 8.08211 4.89381 7.68744 4.79065C7.29277 4.68337 6.8611 4.72463 6.48287 4.9392C6.47465 4.94333 6.47054 4.94745 6.46232 4.95158L2.87739 7.03124C-0.563653 9.016 -0.625321 14.0625 1.15481 19.4473C1.86193 21.593 2.86094 23.7841 4.05318 25.8596C5.24541 27.9352 6.6391 29.8952 8.13556 31.5828C11.8932 35.8206 16.2757 38.2922 19.7126 36.2992L23.2728 34.2361C23.2728 34.2361 23.2893 34.2278 23.2975 34.2196C23.684 33.9967 23.943 33.6336 24.0499 33.2334V33.2375ZM15.5891 22.2367V9.2347L22.0642 15.7336L15.5891 22.2326V22.2367ZM30.5249 15.7378L37 22.2367V9.2347L30.5249 15.7336V15.7378ZM36.3587 22.8846H16.2304L22.7055 16.3856L25.9698 19.6619C26.1465 19.8393 26.4343 19.8393 26.6111 19.6619L29.8754 16.3856L36.3504 22.8846H36.3587ZM22.5657 11.9044C22.4794 11.9622 22.3972 12.0158 22.3232 12.0695C22.1176 12.2139 22.0683 12.4986 22.2122 12.7049C22.3108 12.8452 22.4671 12.9112 22.6233 12.8947C23.536 12.837 24.6007 12.577 25.5998 12.1479C26.459 11.7765 27.2771 11.2814 27.9102 10.6789C29.7274 10.4974 31.3472 9.82064 32.5188 8.83445C32.6134 8.75605 32.7038 8.67352 32.7902 8.59099H36.3545L26.2904 18.6922L16.2263 8.59099H21.0734C21.8216 9.29247 22.7795 9.85777 23.869 10.2291C23.6346 11.1864 23.0385 11.5826 22.5616 11.9003L22.5657 11.9044ZM24.8351 10.0146C24.8844 9.77937 24.7487 9.54417 24.5144 9.47815C23.24 9.11091 22.1587 8.46308 21.4064 7.63369C20.6951 6.85381 20.2799 5.91301 20.2799 4.90619C20.2799 3.57752 21.0076 2.36438 22.1793 1.47722C23.388 0.565305 25.0694 0 26.9318 0C28.7941 0 30.4756 0.565305 31.6843 1.47722C32.856 2.36438 33.5836 3.57339 33.5836 4.90619C33.5836 6.13996 32.9587 7.27057 31.9351 8.13297C30.8662 9.03251 29.3656 9.6432 27.6718 9.7835C27.5649 9.79175 27.4621 9.83714 27.384 9.91967C26.8249 10.485 26.0602 10.9595 25.2421 11.3102C24.8968 11.4588 24.5432 11.5867 24.1896 11.6857C24.4856 11.2896 24.7282 10.7656 24.831 10.0146H24.8351ZM23.5318 4.51419C23.6305 4.61322 23.6922 4.75352 23.6922 4.90619C23.6922 5.05887 23.6305 5.19916 23.5318 5.29819C23.4332 5.39722 23.2934 5.45912 23.1413 5.45912C22.9892 5.45912 22.8494 5.39722 22.7507 5.29819C22.6521 5.19916 22.5904 5.05887 22.5904 4.90619C22.5904 4.75352 22.6521 4.61322 22.7507 4.51419C22.8494 4.41516 22.9892 4.35327 23.1413 4.35327C23.2934 4.35327 23.4332 4.41516 23.5318 4.51419ZM23.1413 3.43722C23.5442 3.43722 23.9101 3.60228 24.1773 3.86636C24.4404 4.13044 24.6049 4.49769 24.6049 4.90619C24.6049 5.3147 24.4404 5.67781 24.1773 5.94602C23.9142 6.21011 23.5483 6.37516 23.1413 6.37516C22.7343 6.37516 22.3725 6.21011 22.1053 5.94602C21.8422 5.68194 21.6777 5.3147 21.6777 4.90619C21.6777 4.49769 21.8422 4.13457 22.1053 3.86636C22.3684 3.60228 22.7343 3.43722 23.1413 3.43722ZM27.3223 4.51419C27.2237 4.41516 27.0839 4.35327 26.9318 4.35327C26.7797 4.35327 26.6399 4.41516 26.5412 4.51419C26.4425 4.61322 26.3809 4.75352 26.3809 4.90619C26.3809 5.05887 26.4425 5.19916 26.5412 5.29819C26.6399 5.39722 26.7797 5.45912 26.9318 5.45912C27.0839 5.45912 27.2237 5.39722 27.3223 5.29819C27.421 5.19916 27.4827 5.05887 27.4827 4.90619C27.4827 4.75352 27.421 4.61322 27.3223 4.51419ZM26.9318 3.43722C26.5289 3.43722 26.163 3.60228 25.8958 3.86636C25.6326 4.13044 25.4682 4.49769 25.4682 4.90619C25.4682 5.3147 25.6326 5.67781 25.8958 5.94602C26.1589 6.21011 26.5248 6.37516 26.9318 6.37516C27.3388 6.37516 27.7006 6.21011 27.9678 5.94602C28.2309 5.68194 28.3953 5.3147 28.3953 4.90619C28.3953 4.49769 28.2309 4.13457 27.9678 3.86636C27.7047 3.60228 27.3388 3.43722 26.9318 3.43722ZM31.1128 4.51419C31.0142 4.41516 30.8744 4.35327 30.7223 4.35327C30.5702 4.35327 30.4304 4.41516 30.3317 4.51419C30.233 4.61322 30.1714 4.75352 30.1714 4.90619C30.1714 5.05887 30.233 5.19916 30.3317 5.29819C30.4304 5.39722 30.5702 5.45912 30.7223 5.45912C30.8744 5.45912 31.0142 5.39722 31.1128 5.29819C31.2115 5.19916 31.2732 5.05887 31.2732 4.90619C31.2732 4.75352 31.2115 4.61322 31.1128 4.51419ZM30.7223 3.43722C30.3194 3.43722 29.9535 3.60228 29.6862 3.86636C29.4231 4.13044 29.2587 4.49769 29.2587 4.90619C29.2587 5.3147 29.4231 5.67781 29.6862 5.94602C29.9494 6.21011 30.3153 6.37516 30.7223 6.37516C31.1293 6.37516 31.491 6.21011 31.7583 5.94602C32.0214 5.68194 32.1858 5.3147 32.1858 4.90619C32.1858 4.49769 32.0214 4.13457 31.7583 3.86636C31.4952 3.60228 31.1293 3.43722 30.7223 3.43722Z" fill="#808080"/>
</svg>
