<svg width="12" height="13" viewBox="0 0 12 13" fill="none" xmlns="http://www.w3.org/2000/svg">
<path d="M6 3.875C4.54688 3.875 3.375 5.07031 3.375 6.5C3.375 7.95312 4.54688 9.125 6 9.125C7.42969 9.125 8.625 7.95312 8.625 6.5C8.625 5.07031 7.42969 3.875 6 3.875ZM6 8C5.15625 8 4.5 7.34375 4.5 6.5C4.5 5.67969 5.15625 5 6 5C6.82031 5 7.5 5.67969 7.5 6.5C7.5 7.34375 6.82031 8 6 8ZM6 3.125C6.30469 3.125 6.5625 2.89062 6.5625 2.5625V1.0625C6.5625 0.757812 6.30469 0.5 6 0.5C5.67188 0.5 5.4375 0.757812 5.4375 1.0625V2.5625C5.4375 2.89062 5.67188 3.125 6 3.125ZM6 9.875C5.67188 9.875 5.4375 10.1328 5.4375 10.4375V11.9375C5.4375 12.2656 5.67188 12.5 6 12.5C6.30469 12.5 6.5625 12.2656 6.5625 11.9375V10.4375C6.5625 10.1328 6.30469 9.875 6 9.875ZM11.4375 5.9375H9.9375C9.60938 5.9375 9.375 6.19531 9.375 6.5C9.375 6.82812 9.60938 7.0625 9.9375 7.0625H11.4375C11.7422 7.0625 12 6.82812 12 6.5C12 6.19531 11.7422 5.9375 11.4375 5.9375ZM2.625 6.5C2.625 6.19531 2.36719 5.9375 2.0625 5.9375H0.5625C0.234375 5.9375 0 6.19531 0 6.5C0 6.82812 0.234375 7.0625 0.5625 7.0625H2.0625C2.36719 7.0625 2.625 6.82812 2.625 6.5ZM9.16406 8.89062C8.95312 8.67969 8.60156 8.67969 8.36719 8.89062C8.15625 9.125 8.15625 9.47656 8.36719 9.6875L9.44531 10.7656C9.53906 10.8594 9.67969 10.9297 9.84375 10.9297C9.98438 10.9297 10.125 10.8594 10.2422 10.7656C10.4531 10.5312 10.4531 10.1797 10.2422 9.96875L9.16406 8.89062ZM2.8125 4.13281C2.90625 4.22656 3.07031 4.29688 3.21094 4.29688C3.35156 4.29688 3.49219 4.22656 3.60938 4.13281C3.82031 3.89844 3.82031 3.54688 3.60938 3.33594L2.53125 2.25781C2.32031 2.04688 1.96875 2.04688 1.73438 2.25781C1.52344 2.49219 1.52344 2.84375 1.73438 3.05469L2.8125 4.13281ZM8.76562 4.29688C8.90625 4.29688 9.07031 4.22656 9.16406 4.13281L10.2422 3.05469C10.4531 2.84375 10.4531 2.49219 10.2422 2.25781C10.0078 2.04688 9.65625 2.04688 9.44531 2.25781L8.36719 3.33594C8.15625 3.54688 8.15625 3.89844 8.36719 4.13281C8.48438 4.22656 8.625 4.29688 8.76562 4.29688ZM2.8125 8.89062L1.73438 9.96875C1.52344 10.1797 1.52344 10.5312 1.73438 10.7656C1.85156 10.8594 1.99219 10.9297 2.13281 10.9297C2.29688 10.9297 2.4375 10.8594 2.53125 10.7656L3.60938 9.6875C3.82031 9.47656 3.82031 9.125 3.60938 8.89062C3.375 8.67969 3.02344 8.67969 2.8125 8.89062Z" fill="#828282"/>
</svg>
