<svg width="65" height="37" viewBox="0 0 65 37" fill="none" xmlns="http://www.w3.org/2000/svg">
<path fill-rule="evenodd" clip-rule="evenodd" d="M28.9835 24.3952C28.7505 24.3978 28.7085 24.399 28.9236 24.3965L23.7905 24.4499H22.6523C22.4486 24.4499 22.2577 24.5467 22.138 24.7109C22.138 24.7109 17.9979 30.3648 16.3734 32.5825C15.8107 33.3502 15.9774 34.4285 16.7451 34.9912L16.8317 35.0562C17.2009 35.3261 17.6618 35.4394 18.1137 35.3694C18.5657 35.3006 18.9718 35.0536 19.243 34.6857L22.0158 30.9071V36.2834C22.0158 36.6348 22.2997 36.92 22.6523 36.92H31.2139C31.5653 36.92 31.8505 36.6348 31.8505 36.2834V26.8803L35.3604 24.0286L35.2624 24.0629C35.3999 23.9929 35.5107 23.8745 35.5692 23.723L36.7914 20.5237C37.1415 19.6058 36.6819 18.5784 35.7653 18.2283H35.764C35.3235 18.0602 34.8347 18.073 34.4043 18.2652C33.974 18.4587 33.6379 18.8139 33.4699 19.2544L32.5112 21.7612L29.2725 24.3927L28.9835 24.3952ZM13.0722 24.2743C12.768 24.2768 12.8011 24.2768 13.0646 24.2743L7.93143 24.3277H6.79328C6.58958 24.3277 6.39862 24.4245 6.27895 24.5874C6.27895 24.5874 2.13881 30.2426 0.514334 32.4603C-0.0483779 33.228 0.118399 34.3063 0.88608 34.869L0.972651 34.9327C1.34185 35.2038 1.80271 35.3172 2.25467 35.2471C2.70662 35.1784 3.11274 34.9314 3.38391 34.5635L6.15673 30.7849V36.1612C6.15673 36.5126 6.44063 36.7978 6.79328 36.7978H15.3536C15.7063 36.7978 15.9902 36.5126 15.9902 36.1612V26.7581L19.5014 23.9051L19.4034 23.9407C19.5409 23.8707 19.6516 23.751 19.7102 23.6008C19.7102 23.6008 20.4613 21.6338 20.9438 20.3722C21.1081 19.9393 21.0953 19.4581 20.9056 19.0354C20.7172 18.6128 20.3684 18.283 19.9355 18.1175C19.9152 18.1099 19.8961 18.1023 19.8757 18.0946C19.4428 17.9291 18.9629 17.9431 18.5402 18.1315C18.1175 18.3212 17.7865 18.6701 17.621 19.1029L16.6522 21.6389L13.4134 24.2704L13.0722 24.2743ZM29.4074 19.7547C29.4074 18.8801 29.0599 18.0424 28.4424 17.425C27.8237 16.8062 26.986 16.4587 26.1113 16.4587C26.035 16.4587 25.9586 16.4587 25.8809 16.4587C25.0076 16.4587 24.1686 16.8062 23.5511 17.425C22.9337 18.0424 22.5861 18.8801 22.5861 19.7547C22.5861 20.0603 22.5861 20.3735 22.5861 20.679C22.5861 21.5536 22.9337 22.3913 23.5511 23.0101C24.1686 23.6275 25.0076 23.9751 25.8809 23.9751C25.9586 23.9751 26.035 23.9751 26.1113 23.9751C26.986 23.9751 27.8237 23.6275 28.4424 23.0101C29.0599 22.3913 29.4074 21.5536 29.4074 20.679V19.7547ZM13.5484 19.6325C13.5484 18.7579 13.2008 17.9202 12.5834 17.3015C11.9646 16.684 11.1269 16.3365 10.2523 16.3365C10.1759 16.3365 10.0995 16.3365 10.0219 16.3365C9.14852 16.3365 8.30954 16.684 7.69209 17.3015C7.07463 17.9202 6.72708 18.7579 6.72708 19.6325C6.72708 19.9381 6.72708 20.2513 6.72708 20.5568C6.72708 21.4314 7.07463 22.2691 7.69209 22.8866C8.30954 23.5053 9.14852 23.8529 10.0219 23.8529C10.0995 23.8529 10.1759 23.8529 10.2523 23.8529C11.1269 23.8529 11.9646 23.5053 12.5834 22.8866C13.2008 22.2691 13.5484 21.4314 13.5484 20.5568V19.6325ZM5.72896 10.8214V17.1869C5.72896 17.5383 6.01414 17.8234 6.36552 17.8234C6.71689 17.8234 7.00207 17.5383 7.00207 17.1869V10.8214H12.0945C12.4459 10.8214 12.731 10.5362 12.731 10.1848V3.81931C12.731 3.46793 12.4459 3.18276 12.0945 3.18276H0.636552C0.285175 3.18276 0 3.46793 0 3.81931V10.1848C0 10.5362 0.285175 10.8214 0.636552 10.8214H5.72896ZM29.9179 10.8214V17.1869C29.9179 17.5383 30.2031 17.8234 30.5545 17.8234C30.9059 17.8234 31.191 17.5383 31.191 17.1869V10.8214H36.2834C36.6348 10.8214 36.92 10.5362 36.92 10.1848V3.81931C36.92 3.46793 36.6348 3.18276 36.2834 3.18276H24.8255C24.4741 3.18276 24.189 3.46793 24.189 3.81931V10.1848C24.189 10.5362 24.4741 10.8214 24.8255 10.8214H29.9179ZM17.8234 1.2731H15.2772C14.9259 1.2731 14.6407 1.55828 14.6407 1.90965V9.54827C14.6407 9.89965 14.9259 10.1848 15.2772 10.1848H17.8234V15.9138C17.8234 16.2652 18.1086 16.5503 18.46 16.5503C18.8114 16.5503 19.0965 16.2652 19.0965 15.9138V10.1848H21.6428C21.9941 10.1848 22.2793 9.89965 22.2793 9.54827V1.90965C22.2793 1.55828 21.9941 1.2731 21.6428 1.2731H19.0965V0.636552C19.0965 0.285175 18.8114 0 18.46 0C18.1086 0 17.8234 0.285175 17.8234 0.636552V1.2731ZM30.5545 6.0727L29.9523 5.43233C29.7117 5.17644 29.3081 5.16371 29.0522 5.40432C28.7963 5.64494 28.7836 6.04724 29.0242 6.30441L29.6811 7.00207L29.0242 7.69973C28.7836 7.9569 28.7963 8.3592 29.0522 8.59981C29.3081 8.84043 29.7117 8.8277 29.9523 8.5718L30.5545 7.93143L31.1567 8.5718C31.3973 8.8277 31.8008 8.84043 32.0567 8.59981C32.3126 8.3592 32.3254 7.9569 32.0847 7.69973L31.4278 7.00207L32.0847 6.30441C32.3254 6.04724 32.3126 5.64494 32.0567 5.40432C31.8008 5.16371 31.3973 5.17644 31.1567 5.43233L30.5545 6.0727ZM6.36552 6.0727L5.76334 5.43233C5.52272 5.17644 5.11915 5.16371 4.86325 5.40432C4.60736 5.64494 4.59463 6.04724 4.83525 6.30441L5.49217 7.00207L4.83525 7.69973C4.59463 7.9569 4.60736 8.3592 4.86325 8.59981C5.11915 8.84043 5.52272 8.8277 5.76334 8.5718L6.36552 7.93143L6.96769 8.5718C7.20831 8.8277 7.61188 8.84043 7.86778 8.59981C8.12367 8.3592 8.1364 7.9569 7.89579 7.69973L7.23886 7.00207L7.89579 6.30441C8.1364 6.04724 8.12367 5.64494 7.86778 5.40432C7.61188 5.16371 7.20831 5.17644 6.96769 5.43233L6.36552 6.0727ZM18.46 4.7996L17.8578 4.15923C17.6172 3.90333 17.2136 3.8906 16.9577 4.13122C16.7018 4.37184 16.6891 4.77414 16.9297 5.0313L17.5866 5.72896L16.9297 6.42662C16.6891 6.68379 16.7018 7.08609 16.9577 7.32671C17.2136 7.56733 17.6172 7.55459 17.8578 7.2987L18.46 6.65833L19.0622 7.2987C19.3028 7.55459 19.7064 7.56733 19.9623 7.32671C20.2182 7.08609 20.2309 6.68379 19.9903 6.42662L19.3333 5.72896L19.9903 5.0313C20.2309 4.77414 20.2182 4.37184 19.9623 4.13122C19.7064 3.8906 19.3028 3.90333 19.0622 4.15923L18.46 4.7996Z" fill="#808080"/>
<path fill-rule="evenodd" clip-rule="evenodd" d="M43.8237 17.9351C43.7011 18.2793 43.6958 18.6668 43.8364 19.0342C44.2888 20.2167 45.8659 23.5614 45.8659 23.5614L46.035 23.7525L46.1671 23.8127L46.3415 23.8644L46.3585 23.8993L46.1671 23.8127L46.0604 23.781L46.035 23.7525L45.9589 23.7177L49.3117 27.5755V36.3923C49.3117 36.6837 49.5475 36.9202 49.8402 36.9202H57.7995C58.0923 36.9202 58.328 36.6837 58.328 36.3923V27.5755L61.6809 23.7177L61.6397 23.7367C61.6957 23.6892 61.7411 23.63 61.7739 23.5614C61.7739 23.5614 63.3499 20.2167 63.8023 19.0342C63.9429 18.6668 63.9376 18.2793 63.815 17.9351H64.4714C64.7642 17.9351 64.9999 17.6997 64.9999 17.4072V6.76813C64.9999 6.47673 64.7642 6.24023 64.4714 6.24023H43.1684C42.8756 6.24023 42.6399 6.47673 42.6399 6.76813V17.4072C42.6399 17.6997 42.8756 17.9351 43.1684 17.9351H43.8237ZM60.8184 17.9351H46.8193C47.1903 18.8896 48.3816 21.3717 48.5845 21.794L51.6784 25.4143L53.8199 25.4365L55.9614 25.4143C55.9614 25.4143 59.0553 21.794 59.0563 21.793C59.2614 21.3664 60.4484 18.8885 60.8184 17.9351ZM56.9275 20.979C56.9275 19.4692 55.7024 18.2466 54.1909 18.2466C53.9457 18.2466 53.6941 18.2466 53.4489 18.2466C51.9374 18.2466 50.7123 19.4692 50.7123 20.979C50.7123 21.4329 50.7123 21.9112 50.7123 22.3663C50.7123 23.875 51.9374 25.0986 53.4489 25.0986C53.6941 25.0986 53.9457 25.0986 54.1909 25.0986C55.7024 25.0986 56.9275 23.875 56.9275 22.3663C56.9275 21.9112 56.9275 21.4329 56.9275 20.979ZM47.9017 11.3175L46.5117 9.84045C46.3119 9.62824 45.9769 9.61768 45.7644 9.81723C45.552 10.0168 45.5424 10.3515 45.7422 10.5637L47.1766 12.0882L45.7422 13.6128C45.5424 13.825 45.552 14.1597 45.7644 14.3592C45.9769 14.5587 46.3119 14.5482 46.5117 14.336L47.9017 12.8589L49.2927 14.336C49.4925 14.5482 49.8265 14.5587 50.039 14.3592C50.2525 14.1597 50.262 13.825 50.0622 13.6128L48.6279 12.0882L50.0622 10.5637C50.262 10.3515 50.2525 10.0168 50.039 9.81723C49.8265 9.61768 49.4925 9.62824 49.2927 9.84045L47.9017 11.3175ZM53.8199 11.3175L52.4299 9.84045C52.2301 9.62824 51.8951 9.61768 51.6826 9.81723C51.4702 10.0168 51.4596 10.3515 51.6594 10.5637L53.0948 12.0882L51.6594 13.6128C51.4596 13.825 51.4702 14.1597 51.6826 14.3592C51.8951 14.5587 52.2301 14.5482 52.4299 14.336L53.8199 12.8589L55.2099 14.336C55.4096 14.5482 55.7447 14.5587 55.9572 14.3592C56.1696 14.1597 56.1802 13.825 55.9804 13.6128L54.545 12.0882L55.9804 10.5637C56.1802 10.3515 56.1696 10.0168 55.9572 9.81723C55.7447 9.61768 55.4096 9.62824 55.2099 9.84045L53.8199 11.3175ZM59.7381 11.3175L58.3471 9.84045C58.1473 9.62824 57.8133 9.61768 57.6008 9.81723C57.3873 10.0168 57.3778 10.3515 57.5776 10.5637L59.0119 12.0882L57.5776 13.6128C57.3778 13.825 57.3873 14.1597 57.6008 14.3592C57.8133 14.5587 58.1473 14.5482 58.3471 14.336L59.7381 12.8589L61.1281 14.336C61.3278 14.5482 61.6629 14.5587 61.8754 14.3592C62.0878 14.1597 62.0973 13.825 61.8976 13.6128L60.4632 12.0882L61.8976 10.5637C62.0973 10.3515 62.0878 10.0168 61.8754 9.81723C61.6629 9.61768 61.3278 9.62824 61.1281 9.84045L59.7381 11.3175Z" fill="#808080"/>
</svg>
